<svg xmlns="http://www.w3.org/2000/svg" width="512" height="512" viewBox="0 0 512 512">
  <rect width="512" height="512" rx="64" fill="#0b1120"/>
  <g transform="translate(-150,-163.3) scale(0.97)">
    <path fill="#fff" d="m 470.225,364.775 c -12.85,16.609 -32.115,25.238 -51.375,25.225 -19.26,-0.013 -38.414,-8.427 -51.5,-25.35 l -46.5,-18.917 c 15.05,61.85 98,128.367 98,128.367 0,0 82.218,-66.604 98,-128.379 z M 418.85,225 c -48.613,0.422 -77.172,30.253 -90,57 l 33,12 c 12.007,-22.319 35.119,-34.005 57,-34 21.881,0.005 45.146,11.773 57,34 l 33,-12 c -12.25,-26.453 -41.387,-57.422 -90,-57 z"/>
    <path fill="#fff" d="m 598.85,253 v 45 l -180,72.2 v 0 l -180,-72.2 v -45 l 10,19.9 130,36.5 5,-16 5,18.8 c 0,0 22.3,3.3 30,3.3 7.6,0 30,-3.3 30,-3.3 l 5,-18.8 5,16 130,-36.5 z"/>
    <path fill="#fff" d="m 350,606.6 -30.7,-89.9 c -0.8,-3.1 -3,-4.6 -6.3,-4.6 h -39.1 c -3.4,0 -5.5,1.5 -6.3,4.6 l -30.7,89.9 c -0.1,0.3 -0.1,0.7 -0.1,1.3 0,0.6 0.3,1.1 0.9,1.8 0.6,0.6 1.3,0.9 2.2,0.9 h 26.6 c 3,0 5.1,-1.6 6.3,-4.8 l 3.5,-9.8 h 34.3 l 3.5,9.8 c 1.2,3.2 3.3,4.8 6.3,4.8 h 26.7 c 0.8,0 1.6,-0.3 2.2,-0.9 0.6,-0.6 0.9,-1.2 0.9,-1.8 0,-0.6 -0.1,-1 -0.2,-1.3 z m -66.5,-38.1 10,-29.3 10,29.3 z"/>
    <path fill="#fff" d="m 475.4,606.6 -30.7,-89.9 c -0.8,-3.1 -3,-4.6 -6.3,-4.6 h -39.1 c -3.4,0 -5.5,1.5 -6.3,4.6 l -30.7,89.9 c -0.1,0.3 -0.1,0.7 -0.1,1.3 0,0.6 0.3,1.1 0.9,1.8 0.6,0.6 1.3,0.9 2.2,0.9 h 26.6 c 3,0 5.1,-1.6 6.3,-4.8 l 3.5,-9.8 H 436 l 3.5,9.8 c 1.2,3.2 3.3,4.8 6.3,4.8 h 26.6 c 0.8,0 1.6,-0.3 2.2,-0.9 0.6,-0.6 0.9,-1.2 0.9,-1.8 0,-0.6 0,-1 -0.1,-1.3 z m -66.6,-38.1 10,-29.3 10,29.3 z"/>
    <path fill="#fff" d="m 586.2,579 c 0,9.4 -4.6,17 -13.8,22.8 -9.2,5.8 -21.4,8.8 -36.7,8.8 -15.2,0 -27.1,-2.8 -35.5,-8.4 -8.4,-5.6 -12.7,-12.5 -12.7,-20.7 0,-2 1.1,-3 3.1,-3 h 28 c 1.9,0 3.5,0.6 4.7,1.8 2.6,2.5 7,3.7 13.3,3.7 8.7,0 13,-1.3 13,-4 0,-1.6 -1.4,-2.9 -4.1,-3.9 -2.7,-1 -8.2,-1.9 -16.3,-2.8 -25.8,-3.1 -38.7,-13 -38.7,-29.7 0,-9.4 4.2,-17 12.4,-22.8 8.3,-5.8 19.4,-8.7 33.3,-8.7 13.9,0 25.1,3 33.7,9.1 8.6,6.1 12.9,12.5 12.9,19.2 0,0.9 -0.3,1.6 -0.9,2.2 -0.6,0.6 -1.4,0.8 -2.4,0.8 h -29.4 c -1.6,0 -3.1,-0.5 -4.2,-1.6 -2.2,-2 -5.5,-3 -9.8,-3 -6.1,0 -9.2,1.3 -9.2,3.8 0,1.4 1.2,2.4 3.6,3.2 2.4,0.8 7.1,1.6 14.2,2.4 15,1.7 25.6,4.9 31.9,9.6 6.4,4.7 9.6,11.8 9.6,21.2 z"/>
  </g>
</svg>
